<?xml version="1.0" standalone="no"?>
<!DOCTYPE svg PUBLIC "-//W3C//DTD SVG 1.1//EN" "http://www.w3.org/Graphics/SVG/1.1/DTD/svg11.dtd" >
<!--
2013-9-30: Created.
-->
<svg>
<metadata>
Created by iconfont
</metadata>
<defs>

<font id="iconfont" horiz-adv-x="1024" >
  <font-face
    font-family="iconfont"
    font-weight="500"
    font-stretch="normal"
    units-per-em="1024"
    ascent="896"
    descent="-128"
  />
    <missing-glyph />
    
    <glyph glyph-name="ICON_biaoqian_x" unicode="&#58881;" d="M914.773333 281.6L474.026667 725.333333a69.12 69.12 0 0 1-42.666667 20.053334l-223.146667 17.493333a68.693333 68.693333 0 0 1-55.04-20.053333 69.546667 69.546667 0 0 1-20.053333-55.04L144.64 554.666667a21.333333 21.333333 0 0 1 23.04-19.626667 21.76 21.76 0 0 1 19.626667 19.626667l-11.946667 136.533333a26.453333 26.453333 0 0 0 8.106667 21.333333 26.026667 26.026667 0 0 0 21.333333 8.106667l221.866667-19.2a26.88 26.88 0 0 0 16.64-8.106667L884.906667 251.733333a39.253333 39.253333 0 0 0 0-54.186666l-195.413334-186.026667a38.4 38.4 0 0 0-54.186666 0L256 398.933333a21.333333 21.333333 0 1 1-30.293333-29.866666l380.16-387.84a81.066667 81.066667 0 0 1 114.346666 0l194.986667 186.453333a80.213333 80.213333 0 0 1 0 114.346667zM469.333333 533.333333A106.666667 106.666667 0 1 1 362.666667 426.666667 106.666667 106.666667 0 0 1 469.333333 533.333333z m-170.666666 0A64 64 0 1 0 362.666667 469.333333 64 64 0 0 0 298.666667 533.333333z"  horiz-adv-x="1024" />

    
    <glyph glyph-name="ICON_dingwei_x" unicode="&#58882;" d="M512 810.666667a341.333333 341.333333 0 0 1-341.333333-341.333334 268.373333 268.373333 0 0 1 56.746666-164.693333l218.453334-311.466667a80.64 80.64 0 0 1 132.266666 0l79.36 113.066667a21.333333 21.333333 0 0 1-34.986666 24.746667l-79.36-113.493334a39.253333 39.253333 0 0 0-62.293334 0l-219.306666 312.746667A224.853333 224.853333 0 0 0 213.333333 469.333333a298.666667 298.666667 0 0 0 597.333334 0 224.426667 224.426667 0 0 0-49.066667-139.946666l-12.8-18.346667a21.333333 21.333333 0 0 1 34.986667-24.746667l11.946666 17.493334A268.373333 268.373333 0 0 1 853.333333 469.333333a341.333333 341.333333 0 0 1-341.333333 341.333334zM341.333333 512a170.666667 170.666667 0 1 1 170.666667 170.666667 170.666667 170.666667 0 0 1-170.666667-170.666667z m298.666667 0a128 128 0 1 0-128 128 128 128 0 0 0 128-128z"  horiz-adv-x="1024" />

    
    <glyph glyph-name="ICON_fenxiang_x" unicode="&#58883;" d="M917.333333 490.666667A21.333333 21.333333 0 0 0 896 512V746.666667a21.333333 21.333333 0 0 0 42.666667 0V512a21.333333 21.333333 0 0 0-21.333334-21.333333zM857.6-42.666667H166.4A81.066667 81.066667 0 0 0 85.333333 38.4V644.266667A81.066667 81.066667 0 0 0 166.4 725.333333H554.666667a21.333333 21.333333 0 0 0 0-42.666666H166.4a38.4 38.4 0 0 1-38.4-38.4v-605.866667a38.4 38.4 0 0 1 38.4-38.4h691.2a38.4 38.4 0 0 1 38.4 38.4V341.333333a21.333333 21.333333 0 0 0 42.666667 0v-302.933333a81.066667 81.066667 0 0 0-81.066667-81.066667zM917.333333 490.666667A21.333333 21.333333 0 0 0 896 512V725.333333h-213.333333a21.333333 21.333333 0 0 0 0 42.666667h234.666666a21.333333 21.333333 0 0 0 21.333334-21.333333V512a21.333333 21.333333 0 0 0-21.333334-21.333333zM590.933333 137.813333a21.333333 21.333333 0 0 0-20.48 16.213334 518.826667 518.826667 0 0 0-15.786666 128c0 236.373333 156.16 434.773333 355.413333 452.266666a21.333333 21.333333 0 0 0 23.04-19.626666 21.76 21.76 0 0 0-19.2-23.04C736.426667 676.693333 597.333333 496.64 597.333333 282.453333a477.013333 477.013333 0 0 1 14.506667-118.186666 21.76 21.76 0 0 0-15.786667-25.6z"  horiz-adv-x="1024" />

    
    <glyph glyph-name="ICON_shanchu_x" unicode="&#58884;" d="M874.666667 640H682.666667a170.666667 170.666667 0 0 1-341.333334 0H149.333333a21.333333 21.333333 0 0 1 0-42.666667H256v-558.933333A81.066667 81.066667 0 0 1 337.066667-42.666667h349.866666a81.066667 81.066667 0 0 1 81.066667 81.066667V42.666667a21.333333 21.333333 0 0 1-42.666667 0v-4.266667a38.4 38.4 0 0 0-38.4-38.4H337.066667a38.4 38.4 0 0 0-38.4 38.4V597.333333h426.666666v-384a21.333333 21.333333 0 0 1 42.666667 0V597.333333h106.666667a21.333333 21.333333 0 0 1 0 42.666667zM512 768a128 128 0 0 0 128-128H384a128 128 0 0 0 128 128zM384 533.333333v-469.333333a21.333333 21.333333 0 0 1 42.666667 0v469.333333a21.333333 21.333333 0 0 1-42.666667 0zM490.666667 533.333333v-469.333333a21.333333 21.333333 0 0 1 42.666666 0v469.333333a21.333333 21.333333 0 0 1-42.666666 0zM597.333333 533.333333v-469.333333a21.333333 21.333333 0 0 1 42.666667 0v469.333333a21.333333 21.333333 0 0 1-42.666667 0z"  horiz-adv-x="1024" />

    
    <glyph glyph-name="ICON_gouwuche_x" unicode="&#58885;" d="M686.08 85.333333H208.213333a85.333333 85.333333 0 0 0-85.333333 78.08l-31.146667 341.333334a85.333333 85.333333 0 0 0 85.333334 93.866666h442.026666a21.333333 21.333333 0 0 0 0-42.666666H177.493333a42.666667 42.666667 0 0 1-32-14.08 42.666667 42.666667 0 0 1-11.093333-33.28l30.72-341.333334a42.666667 42.666667 0 0 1 42.666667-39.253333h477.866666a42.666667 42.666667 0 0 1 42.666667 40.533333l35.84 542.293334A61.44 61.44 0 0 0 826.88 768h50.346667A61.013333 61.013333 0 0 0 938.666667 706.56V661.333333a21.333333 21.333333 0 0 0-42.666667 0V706.56a18.773333 18.773333 0 0 1-18.773333 18.773333h-50.346667a19.2 19.2 0 0 1-18.773333-17.493333l-36.266667-542.293333A85.333333 85.333333 0 0 0 686.08 85.333333zM618.666667 384h-384a21.333333 21.333333 0 0 0 0 42.666667h384a21.333333 21.333333 0 0 0 0-42.666667zM618.666667 256h-384a21.333333 21.333333 0 0 0 0 42.666667h384a21.333333 21.333333 0 0 0 0-42.666667zM149.333333 21.333333m-21.333333 0a21.333333 21.333333 0 1 1 42.666667 0 21.333333 21.333333 0 1 1-42.666667 0ZM746.666667 21.333333m-21.333334 0a21.333333 21.333333 0 1 1 42.666667 0 21.333333 21.333333 0 1 1-42.666667 0Z"  horiz-adv-x="1024" />

    
    <glyph glyph-name="ICON_shaoma_x" unicode="&#58886;" d="M106.666667 469.333333a21.333333 21.333333 0 0 1 21.333333 21.333334V729.6a38.4 38.4 0 0 0 38.4 38.4h238.933333a21.333333 21.333333 0 0 1 0 42.666667H166.4A81.066667 81.066667 0 0 1 85.333333 729.6v-238.933333a21.333333 21.333333 0 0 1 21.333334-21.333334zM404.48 0H166.4a38.4 38.4 0 0 0-38.4 38.4v238.933333a21.333333 21.333333 0 0 1-42.666667 0v-238.933333A81.066667 81.066667 0 0 1 166.4-42.666667h238.08a21.333333 21.333333 0 0 1 0 42.666667zM917.333333 298.666667a21.333333 21.333333 0 0 1-21.333333-21.333334v-238.933333a38.4 38.4 0 0 0-38.4-38.4h-238.933333a21.333333 21.333333 0 0 1 0-42.666667h238.933333a81.066667 81.066667 0 0 1 81.066667 81.066667v238.933333a21.333333 21.333333 0 0 1-21.333334 21.333334zM857.6 810.666667h-238.08a21.333333 21.333333 0 0 1 0-42.666667h238.08a38.4 38.4 0 0 0 38.4-38.4v-238.933333a21.333333 21.333333 0 0 1 42.666667 0V729.6A81.066667 81.066667 0 0 1 857.6 810.666667zM168.106667 381.44a85.333333 85.333333 0 0 1 85.333333-85.333333H768a85.333333 85.333333 0 0 1 0 170.666666H253.44a85.333333 85.333333 0 0 1-85.333333-85.333333z m642.56 0a42.666667 42.666667 0 0 0-42.666667-42.666667H253.44a42.666667 42.666667 0 1 0 0 85.333334H768a42.666667 42.666667 0 0 0 42.666667-42.666667z"  horiz-adv-x="1024" />

    
    <glyph glyph-name="ICON_shizhong_x" unicode="&#58887;" d="M916.906667 518.826667a21.333333 21.333333 0 0 1-40.533334-13.226667A380.16 380.16 0 0 0 896 384a384 384 0 1 0-384 384 379.306667 379.306667 0 0 0 239.786667-85.333333 21.333333 21.333333 0 1 1 26.453333 33.28A426.666667 426.666667 0 1 1 938.666667 384a422.826667 422.826667 0 0 1-21.76 134.826667zM237.653333 341.333333a21.333333 21.333333 0 0 1-42.666666-6.4A321.706667 321.706667 0 0 1 512 64a21.333333 21.333333 0 0 1 0 42.666667A279.04 279.04 0 0 0 237.653333 341.333333zM533.333333 466.346667V597.333333a21.333333 21.333333 0 1 1-42.666666 0v-128a85.333333 85.333333 0 1 1 103.68-103.68h213.333333a21.333333 21.333333 0 0 1 0 42.666667h-213.333333a85.333333 85.333333 0 0 1-61.013334 58.026667zM512 341.333333a42.666667 42.666667 0 1 0 42.666667 42.666667 42.666667 42.666667 0 0 0-42.666667-42.666667z"  horiz-adv-x="1024" />

    
    <glyph glyph-name="ICON_shouye_x" unicode="&#58888;" d="M926.72 411.306667l-384 384a42.666667 42.666667 0 0 1-62.72 0l-384-386.56a42.666667 42.666667 0 0 1-6.4-42.666667A42.666667 42.666667 0 0 1 128 341.333333h85.333333v-302.933333A81.066667 81.066667 0 0 1 294.4-42.666667h51.2a81.066667 81.066667 0 0 1 81.066667 81.066667v93.866667a38.4 38.4 0 0 0 38.4 38.4h153.6a21.333333 21.333333 0 0 1 0 42.666666h-153.6A81.066667 81.066667 0 0 1 384 132.266667v-93.866667a38.4 38.4 0 0 0-38.4-38.4H294.4a38.4 38.4 0 0 0-38.4 38.4V341.333333h512v-302.933333a38.4 38.4 0 0 0-38.4-38.4h-110.933333a21.333333 21.333333 0 0 1 0-42.666667h110.933333a81.066667 81.066667 0 0 1 81.066667 81.066667V341.333333h85.333333a42.666667 42.666667 0 0 1 37.973333 24.746667 42.666667 42.666667 0 0 1-7.253333 45.226667zM128 384l384 384 384-384z"  horiz-adv-x="1024" />

    
    <glyph glyph-name="ICON_shousuo_x" unicode="&#58889;" d="M328.96 658.773333A213.333333 213.333333 0 0 1 213.333333 469.333333a220.586667 220.586667 0 0 1 5.12-47.36 21.76 21.76 0 0 1 20.906667-16.64h4.693333a21.333333 21.333333 0 0 1 16.213334 25.6A162.133333 162.133333 0 0 0 256 469.333333a170.666667 170.666667 0 0 0 92.586667 151.893334 21.333333 21.333333 0 0 1-19.626667 37.546666zM889.6 36.266667l-237.226667 237.653333a298.666667 298.666667 0 1 1-341.333333-80.213333 21.333333 21.333333 0 0 1 30.293333 11.52 21.76 21.76 0 0 1-11.52 27.733333 256 256 0 1 0 197.12 0 21.76 21.76 0 0 1-11.52-27.733333 20.906667 20.906667 0 0 1 19.626667-13.226667 20.48 20.48 0 0 1 8.533333 0 291.84 291.84 0 0 1 80.213334 49.92l237.653333-237.226667a20.48 20.48 0 0 1 29.866667 0 20.48 20.48 0 0 1-1.706667 31.573334z"  horiz-adv-x="1024" />

    
    <glyph glyph-name="ICON_suo_x" unicode="&#58890;" d="M814.933333 512H298.666667V554.666667a213.333333 213.333333 0 0 0 412.16 77.653333 21.333333 21.333333 0 1 1 39.68 15.36A256 256 0 0 1 256 554.666667v-42.666667H209.066667A81.066667 81.066667 0 0 1 128 430.933333V128a21.333333 21.333333 0 0 1 42.666667 0v302.933333a38.4 38.4 0 0 0 38.4 38.4h605.866666a38.4 38.4 0 0 0 38.4-38.4v-392.533333a38.4 38.4 0 0 0-38.4-38.4H244.053333a21.333333 21.333333 0 1 1 0-42.666667H814.933333a81.066667 81.066667 0 0 1 81.066667 81.066667v392.533333A81.066667 81.066667 0 0 1 814.933333 512zM512 42.666667a21.333333 21.333333 0 0 1 21.333333 21.333333V170.666667a106.666667 106.666667 0 1 1-42.666666 0v-109.653334a21.333333 21.333333 0 0 1 21.333333-18.346666z m-64 234.666666A64 64 0 1 0 512 213.333333a64 64 0 0 0-64 64z"  horiz-adv-x="1024" />

    
    <glyph glyph-name="ICON_shouchang_x" unicode="&#58891;" d="M272.213333-45.653333a61.013333 61.013333 0 0 0-35.84 11.52A59.733333 59.733333 0 0 0 213.333333 25.173333l30.72 186.026667a95.573333 95.573333 0 0 1-26.88 85.333333L102.826667 405.333333A76.373333 76.373333 0 0 0 85.333333 483.413333a75.52 75.52 0 0 0 59.733334 51.626667l156.586666 23.466667A96 96 0 0 1 372.48 610.133333l85.333333 168.533334A61.866667 61.866667 0 0 0 512 810.666667a61.013333 61.013333 0 0 0 54.613333-33.706667l85.333334-170.666667a93.44 93.44 0 0 1 55.893333-48.213333 21.333333 21.333333 0 1 0-12.8-40.533333 138.666667 138.666667 0 0 0-81.493333 69.546666l-85.333334 168.533334A18.773333 18.773333 0 0 1 512 768a17.92 17.92 0 0 1-16.213333-10.24l-85.333334-170.666667a138.24 138.24 0 0 0-102.4-70.826666l-157.013333-23.466667a33.28 33.28 0 0 1-26.453333-22.613333 32.426667 32.426667 0 0 1 8.106666-34.133334l113.066667-111.36a138.24 138.24 0 0 0 39.253333-120.32L256 18.346667a18.346667 18.346667 0 0 1 7.253333-17.92 17.066667 17.066667 0 0 1 19.2 0l167.68 85.333333a136.96 136.96 0 0 0 128 0l167.253334-85.333333a17.92 17.92 0 0 1 19.2 0 18.346667 18.346667 0 0 1 7.253333 17.92l-42.666667 245.333333a22.186667 22.186667 0 0 0 6.4 18.773333l155.733334 153.6A32 32 0 0 1 896 469.333333a32.853333 32.853333 0 0 1-26.453333 22.613334h-10.24a21.76 21.76 0 0 0-17.92 24.32 21.333333 21.333333 0 0 0 24.32 17.92h10.24a75.946667 75.946667 0 0 0 42.666666-128l-148.053333-145.493334 39.253333-234.666666a61.013333 61.013333 0 0 0-88.32-64l-167.253333 85.333333a93.44 93.44 0 0 1-85.333333 0L298.666667-38.826667a61.013333 61.013333 0 0 0-26.453334-6.826666z"  horiz-adv-x="1024" />

    
    <glyph glyph-name="ICON_shezhi_x" unicode="&#58892;" d="M536.32-42.666667h-48.64a54.186667 54.186667 0 0 0-53.76 47.786667L426.666667 79.786667a74.666667 74.666667 0 0 1-5.546667 20.053333 298.666667 298.666667 0 0 0-99.84 55.466667 33.706667 33.706667 0 0 1-9.386667-2.56l-91.733333-29.866667a54.186667 54.186667 0 0 0-63.146667 24.32l-25.6 42.666667a53.333333 53.333333 0 0 0 14.933334 70.4l75.946666 54.613333a284.16 284.16 0 0 0 0 134.826667l-76.8 56.32a53.333333 53.333333 0 0 0-14.933333 70.4l25.6 42.666666a54.186667 54.186667 0 0 0 63.146667 24.32l91.733333-29.866666a33.706667 33.706667 0 0 1 9.386667-2.56 298.666667 298.666667 0 0 0 99.84 55.466666 74.666667 74.666667 0 0 1 6.4 21.76l8.106666 74.666667A54.186667 54.186667 0 0 0 487.68 810.666667h48.64a54.186667 54.186667 0 0 0 53.76-47.786667L597.333333 688.213333a74.666667 74.666667 0 0 1 5.546667-20.053333 298.666667 298.666667 0 0 0 99.84-55.466667 33.706667 33.706667 0 0 1 9.386667 2.56l91.733333 29.866667a54.186667 54.186667 0 0 0 63.146667-24.32l25.6-42.666667a53.333333 53.333333 0 0 0-14.933334-70.4l-75.946666-54.613333a284.16 284.16 0 0 0 0-134.826667l75.946666-54.613333a53.333333 53.333333 0 0 0 14.933334-70.4l-25.6-42.666667a54.186667 54.186667 0 0 0-63.146667-24.32l-91.733333 29.866667a33.706667 33.706667 0 0 1-9.386667 2.56 298.666667 298.666667 0 0 0-99.84-55.466667 74.666667 74.666667 0 0 1-5.546667-20.053333l-8.106666-74.666667a54.186667 54.186667 0 0 0-52.906667-51.2z m-209.493333 241.92a21.76 21.76 0 0 0 14.506666-5.546666 256 256 0 0 1 99.84-55.466667 23.466667 23.466667 0 0 0 13.226667-10.666667A128 128 0 0 0 469.333333 85.333333l8.533334-74.666666a11.093333 11.093333 0 0 1 11.093333-9.813334h48.64a11.093333 11.093333 0 0 1 11.093333 9.813334L554.666667 85.333333a128 128 0 0 0 13.653333 42.666667 23.466667 23.466667 0 0 0 13.226667 10.666667A256 256 0 0 1 682.666667 193.706667a24.746667 24.746667 0 0 0 16.213333 5.546666 145.493333 145.493333 0 0 0 27.733333-5.973333l91.306667-29.866667a11.52 11.52 0 0 1 13.226667 5.12l25.6 42.666667a11.52 11.52 0 0 1-3.413334 14.506667l-75.946666 54.613333a63.146667 63.146667 0 0 0-11.093334 10.24 28.16 28.16 0 0 0-8.106666 23.04 245.333333 245.333333 0 0 1 0 137.386667 22.186667 22.186667 0 0 0 5.973333 20.906666 82.773333 82.773333 0 0 0 13.226667 12.373334L853.333333 540.586667a11.52 11.52 0 0 1 3.413334 14.08l-25.6 42.666666a11.52 11.52 0 0 1-13.226667 5.12L725.333333 574.293333a170.666667 170.666667 0 0 0-27.306666-5.546666 23.466667 23.466667 0 0 0-15.36 5.546666 256 256 0 0 1-99.84 55.466667 23.466667 23.466667 0 0 0-13.226667 10.24A128 128 0 0 0 554.666667 682.666667l-8.533334 74.666666a11.093333 11.093333 0 0 1-9.813333 10.666667h-48.64a11.093333 11.093333 0 0 1-11.093333-9.813333L469.333333 682.666667a128 128 0 0 0-13.653333-42.666667 23.466667 23.466667 0 0 0-13.226667-10.666667A256 256 0 0 1 341.333333 574.293333a25.6 25.6 0 0 0-16.213333-5.546666A145.493333 145.493333 0 0 0 298.666667 574.72l-91.306667 29.866667a11.093333 11.093333 0 0 1-14.506667-7.253334l-25.6-42.666666a11.52 11.52 0 0 1 3.413334-14.08l75.946666-54.613334a63.146667 63.146667 0 0 0 9.386667-10.24 28.16 28.16 0 0 0 8.106667-23.04 245.333333 245.333333 0 0 1 0-137.386666 22.186667 22.186667 0 0 0-5.973334-20.906667 82.773333 82.773333 0 0 0-13.226666-12.373333L170.666667 227.413333a11.52 11.52 0 0 1-3.413334-14.506666l25.6-42.666667a11.52 11.52 0 0 1 13.226667-5.12L298.666667 193.706667a170.666667 170.666667 0 0 0 27.306666 5.546666zM512 256a128 128 0 0 0 0 256 123.733333 123.733333 0 0 0 51.2-10.666667 21.333333 21.333333 0 1 0-17.066667-39.253333A85.333333 85.333333 0 0 1 512 469.333333a85.333333 85.333333 0 1 1 85.333333-85.333333 21.333333 21.333333 0 0 0 42.666667 0 128 128 0 0 0-128-128z"  horiz-adv-x="1024" />

    
    <glyph glyph-name="ICON_tianjia_x" unicode="&#58893;" d="M512 106.666667a21.333333 21.333333 0 0 1 21.333333 21.333333v216.32a18.346667 18.346667 0 0 0 18.346667 18.346667H768a21.333333 21.333333 0 0 1 0 42.666666h-217.6a18.346667 18.346667 0 0 0-18.346667 18.346667V643.84a21.333333 21.333333 0 0 1-42.666666 0v-220.16a18.346667 18.346667 0 0 0-18.346667-18.346667H256a21.333333 21.333333 0 0 1 0-42.666666h216.32a18.346667 18.346667 0 0 0 18.346667-18.346667V128a21.333333 21.333333 0 0 1 21.333333-21.333333zM936.106667 426.666667a20.906667 20.906667 0 0 1-23.04 19.2 21.333333 21.333333 0 0 1-19.2-23.466667c0-13.226667 2.133333-26.88 2.133333-40.533333a384 384 0 1 0-124.586667 282.88 21.333333 21.333333 0 0 1 29.013334 31.573333A426.666667 426.666667 0 1 1 938.666667 384a384 384 0 0 1-2.56 42.666667z"  horiz-adv-x="1024" />

    
    <glyph glyph-name="ICON_wenben_x" unicode="&#58894;" d="M818.346667 619.946667l-107.946667 107.946666A135.68 135.68 0 0 1 613.546667 768H251.733333A81.066667 81.066667 0 0 1 170.666667 686.933333v-605.866666A81.066667 81.066667 0 0 1 251.733333 0h541.44a21.333333 21.333333 0 1 1 0 42.666667H251.733333a38.4 38.4 0 0 0-38.4 38.4V686.933333a38.4 38.4 0 0 0 38.4 38.4h361.813334a85.333333 85.333333 0 0 0 27.733333-4.693333 36.266667 36.266667 0 0 1 0-9.813333v-85.333334A71.253333 71.253333 0 0 1 711.253333 554.666667h80.64a34.986667 34.986667 0 0 1 14.933334 3.413333 81.066667 81.066667 0 0 0 3.84-22.613333V256a21.333333 21.333333 0 0 1 42.666666 0V535.466667a121.173333 121.173333 0 0 1-34.986666 84.48zM711.253333 597.333333a28.586667 28.586667 0 0 0-28.586666 28.586667V695.04L780.373333 597.333333zM704 469.333333h-426.666667a21.333333 21.333333 0 0 1 0-42.666666h426.666667a21.333333 21.333333 0 0 1 0 42.666666zM725.333333 320a21.333333 21.333333 0 0 1-21.333333 21.333333h-426.666667a21.333333 21.333333 0 0 1 0-42.666666h426.666667a21.333333 21.333333 0 0 1 21.333333 21.333333zM277.333333 213.333333a21.333333 21.333333 0 0 1 0-42.666666h298.666667a21.333333 21.333333 0 0 1 0 42.666666z"  horiz-adv-x="1024" />

    
    <glyph glyph-name="ICON_wode_x" unicode="&#58895;" d="M888.32 72.96a1102.08 1102.08 0 0 1-197.973333 298.666667 21.333333 21.333333 0 0 1 0 26.453333 21.333333 21.333333 0 0 1-30.293334 0A213.333333 213.333333 0 1 0 725.333333 554.666667a21.333333 21.333333 0 0 1 42.666667 0 256 256 0 1 1-434.773333-183.04 1102.08 1102.08 0 0 1-197.546667-298.666667A81.493333 81.493333 0 0 1 209.066667-42.666667h605.866666a81.066667 81.066667 0 0 1 73.386667 115.626667z m-40.533333-54.613333a38.826667 38.826667 0 0 0-32.853334-18.346667H209.066667a38.826667 38.826667 0 0 0-32.853334 18.346667 37.973333 37.973333 0 0 0 0 36.266666 1047.04 1047.04 0 0 0 192 290.133334A256 256 0 0 1 512 298.666667a252.16 252.16 0 0 1 144.64 45.653333 1047.04 1047.04 0 0 0 192-290.133333 36.693333 36.693333 0 0 0-0.853333-35.84z"  horiz-adv-x="1024" />

    
    <glyph glyph-name="ICON_xianshi_x" unicode="&#58896;" d="M512 125.866667a426.666667 426.666667 0 0 0-302.933333 125.44l-96 96a51.626667 51.626667 0 0 0 0 73.386666L209.066667 516.693333a426.666667 426.666667 0 0 0 605.866666 0l96-96a51.626667 51.626667 0 0 0 0-73.386666l-96-96a426.666667 426.666667 0 0 0-302.933333-125.44zM512 597.333333a384 384 0 0 1-272.64-110.933333l-96-96a10.24 10.24 0 0 1 0-12.8l96-96a384 384 0 0 1 545.28 0l96 96a10.24 10.24 0 0 1 0 12.8L784.64 486.4A384 384 0 0 1 512 597.333333zM512 213.333333a170.666667 170.666667 0 1 0 87.893333 317.013334 21.333333 21.333333 0 0 0 7.253334-29.44 20.906667 20.906667 0 0 0-29.013334-7.253334A128 128 0 1 1 640 384a21.333333 21.333333 0 0 0 42.666667 0 170.666667 170.666667 0 0 0-170.666667-170.666667z"  horiz-adv-x="1024" />

    
    <glyph glyph-name="ICON_xiazai_x" unicode="&#58897;" d="M763.733333 85.333333H261.12a81.066667 81.066667 0 0 0-80.213333 69.546667L170.666667 231.68a21.76 21.76 0 0 0 17.493333 24.32 21.76 21.76 0 0 0 23.893333-18.346667l11.093334-76.8a38.4 38.4 0 0 1 37.973333-32.853333H763.733333a38.4 38.4 0 0 1 37.973334 32.853333l11.093333 76.8a21.76 21.76 0 0 0 23.893333 18.346667 21.76 21.76 0 0 0 18.346667-24.32l-11.093333-76.8A81.066667 81.066667 0 0 0 763.733333 85.333333zM512 213.333333a21.333333 21.333333 0 0 0-21.333333 21.333334V725.333333a21.333333 21.333333 0 0 0 42.666666 0v-490.666666a21.333333 21.333333 0 0 0-21.333333-21.333334zM512 170.666667a34.986667 34.986667 0 0 0-27.306667 12.373333L346.453333 341.333333a21.333333 21.333333 0 0 0 32.426667 28.16L512 217.6l132.693333 152.32a21.333333 21.333333 0 0 0 32.426667-28.16l-137.386667-157.44A36.693333 36.693333 0 0 0 512 170.666667z"  horiz-adv-x="1024" />

    
    <glyph glyph-name="ICON_xiangji_x" unicode="&#58898;" d="M857.6 640h-52.48a60.16 60.16 0 0 0-56.746667 42.666667l-7.68 23.466666A93.013333 93.013333 0 0 1 652.373333 768H371.626667a93.013333 93.013333 0 0 1-88.32-63.573333L275.626667 682.666667a60.16 60.16 0 0 0-56.746667-42.666667H166.4A81.066667 81.066667 0 0 1 85.333333 558.933333v-477.866666A81.066667 81.066667 0 0 1 166.4 0h691.2a81.066667 81.066667 0 0 1 81.066667 81.066667V558.933333A81.066667 81.066667 0 0 1 857.6 640z m38.4-558.933333a38.4 38.4 0 0 0-38.4-38.4H166.4a38.4 38.4 0 0 0-38.4 38.4V558.933333a38.4 38.4 0 0 0 38.4 38.4h52.48a102.826667 102.826667 0 0 1 97.28 69.973334l7.68 23.893333A49.92 49.92 0 0 0 371.626667 725.333333h280.746666a49.92 49.92 0 0 0 47.786667-34.133333l7.68-23.893333A102.826667 102.826667 0 0 1 805.12 597.333333h52.48a38.4 38.4 0 0 0 38.4-38.4zM512 512a192 192 0 0 1 0-384 189.866667 189.866667 0 0 1 132.693333 53.333333 21.333333 21.333333 0 0 1 0 30.293334 21.76 21.76 0 0 1-30.293333 0 149.333333 149.333333 0 1 0 35.413333 163.84 21.333333 21.333333 0 0 1 39.253334 16.213333A191.146667 191.146667 0 0 1 512 512z"  horiz-adv-x="1024" />

    
    <glyph glyph-name="ICON_yingliang_x" unicode="&#58899;" d="M570.026667-35.413333a26.453333 26.453333 0 0 0-18.346667 6.826666l-247.04 213.333334A128 128 0 0 1 223.146667 213.333333H213.333333a128 128 0 0 0-128 128v85.333334a128 128 0 0 0 128 128h11.093334a128 128 0 0 1 81.493333 29.866666l247.466667 213.333334a26.026667 26.026667 0 0 0 29.013333 4.266666 27.306667 27.306667 0 0 0 16.213333-25.173333v-784.64a27.306667 27.306667 0 0 0-16.213333-25.173333 24.746667 24.746667 0 0 0-12.373333-2.56z m9.386666 39.253333zM213.333333 512a85.333333 85.333333 0 0 1-85.333333-85.333333v-85.333334a85.333333 85.333333 0 0 1 85.333333-85.333333h11.093334a167.68 167.68 0 0 0 109.226666-40.106667L554.666667 25.173333V742.826667L332.373333 552.106667A167.68 167.68 0 0 0 223.146667 512z m367.786667 252.586667zM640 203.52a21.333333 21.333333 0 0 0-7.68 42.666667 149.333333 149.333333 0 0 1 2.986667 276.906666 21.76 21.76 0 0 0-11.52 27.733334 21.333333 21.333333 0 0 0 28.16 11.52 192 192 0 0 0-4.266667-355.84 24.746667 24.746667 0 0 0-7.68-2.986667zM725.333333 106.666667a21.333333 21.333333 0 0 0-5.973333 42.666666 245.76 245.76 0 0 1 0 469.333334 20.906667 20.906667 0 0 0-14.506667 26.453333 21.333333 21.333333 0 0 0 26.453334 14.506667 288.426667 288.426667 0 0 0 0-554.666667z"  horiz-adv-x="1024" />

    
    <glyph glyph-name="ICON_xihuan_x" unicode="&#58900;" d="M512 0a20.906667 20.906667 0 0 0-16.213333 8.96L170.666667 463.786667a194.133333 194.133333 0 0 0 21.76 273.066666A191.146667 191.146667 0 0 0 341.333333 782.08a193.706667 193.706667 0 0 0 133.546667-75.52L512 657.066667l36.693333 49.066666a194.56 194.56 0 0 0 280.746667 31.146667 194.133333 194.133333 0 0 0 20.906667-275.2L669.44 170.666667a21.76 21.76 0 0 0-29.44-6.826667 21.333333 21.333333 0 0 0-6.826667 29.44l183.04 295.68A154.026667 154.026667 0 0 1 853.333333 600.746667a151.466667 151.466667 0 0 1-272.213333 79.786666L529.066667 608.853333a21.76 21.76 0 0 0-17.066667-8.533333 20.906667 20.906667 0 0 0-17.066667 8.533333l-54.613333 71.68a151.466667 151.466667 0 0 1-218.453333 23.893334A149.333333 149.333333 0 0 1 170.666667 600.746667a151.893333 151.893333 0 0 1 36.693333-110.933334L512 55.04l15.786667 17.92a20.906667 20.906667 0 0 0 29.866666 2.133333 21.76 21.76 0 0 0 2.133334-30.293333l-33.28-38.4A22.186667 22.186667 0 0 0 512 0zM237.226667 533.333333a21.333333 21.333333 0 0 0-20.48 15.786667A116.053333 116.053333 0 0 0 213.333333 576 106.666667 106.666667 0 0 0 320 682.666667a21.333333 21.333333 0 0 0 0-42.666667 63.573333 63.573333 0 0 1-61.866667-79.786667 21.333333 21.333333 0 0 0-15.36-26.026666 11.52 11.52 0 0 0-5.546666-0.853334z"  horiz-adv-x="1024" />

    
    <glyph glyph-name="ICON_zan_x" unicode="&#58901;" d="M213.333333 597.333333H132.266667A46.933333 46.933333 0 0 1 85.333333 550.4v-460.8A46.933333 46.933333 0 0 1 132.266667 42.666667h117.333333a47.786667 47.786667 0 0 1 34.56 14.933333 46.08 46.08 0 0 1 11.946667 35.84L256 554.666667a46.506667 46.506667 0 0 1-42.666667 42.666666z m38.4-512H132.266667a3.84 3.84 0 0 0-4.266667 4.266667V550.4a3.84 3.84 0 0 0 4.266667 4.266667H213.333333a4.693333 4.693333 0 0 0 4.266667-3.84L252.586667 85.333333a3.84 3.84 0 0 0-2.986667 0zM903.68 608.426667A78.506667 78.506667 0 0 1 840.533333 640h-56.32a21.333333 21.333333 0 0 1 0-42.666667h56.32a36.693333 36.693333 0 0 0 34.986667-46.933333l-35.84-123.733333a14.506667 14.506667 0 0 1-7.68 0h-341.333333a21.333333 21.333333 0 0 1 0-42.666667h337.493333l-36.693333-128H533.333333a21.333333 21.333333 0 0 1 0-42.666667h246.186667l-37.12-128a57.6 57.6 0 0 0-55.466667-42.666666H406.613333a25.6 25.6 0 0 0-25.6 23.893333L343.893333 597.333333h19.626667a154.88 154.88 0 0 1 111.36 42.666667A135.68 135.68 0 0 1 512 746.666667V768h85.333333v-21.333333a191.146667 191.146667 0 0 0-45.226666-113.92 21.76 21.76 0 0 1 2.133333-30.293334 20.906667 20.906667 0 0 1 29.866667 0A232.106667 232.106667 0 0 1 640 746.666667v42.666666a21.333333 21.333333 0 0 1-21.333333 21.333334h-128a21.333333 21.333333 0 0 1-21.333334-21.333334v-42.666666a94.293333 94.293333 0 0 0-25.173333-75.52A112.64 112.64 0 0 0 363.52 640h-19.626667A42.666667 42.666667 0 0 1 298.666667 593.066667l37.973333-529.493334A68.266667 68.266667 0 0 1 406.613333 0h280.32a101.12 101.12 0 0 1 96.853334 72.96l133.12 465.92a78.506667 78.506667 0 0 1-13.226667 69.546667z"  horiz-adv-x="1024" />

    


  </font>
</defs>
</svg>
